<svg xmlns="http://www.w3.org/2000/svg" width="32" height="32" viewBox="0 0 32 32">

      <defs>
        <linearGradient id="bg" x1="0%" y1="0%" x2="100%" y2="100%">
          <stop offset="0%" stop-color="#A78BFA"/>
          <stop offset="100%" stop-color="#7C3AED"/>
        </linearGradient>
      </defs>
  <!-- 直角正方形背景 -->
  <rect x="0" y="0" width="32" height="32" fill="url(#bg)" />

  <g transform="translate(16, 16) scale(0.32)">
    <!-- 背景圆 -->
    <circle cx="0" cy="0" r="28" fill="rgba(255,255,255,0.25)"/>

    <!-- 外圈信号弧线 -->
    <path d="M 18 -26 A 32 32 0 0 1 32 -6" fill="none" stroke="#FFFFFF" stroke-opacity="0.35" stroke-width="2.5" stroke-linecap="round"/>
    <path d="M 22 -33 A 40 40 0 0 1 40 -4" fill="none" stroke="#FFFFFF" stroke-opacity="0.18" stroke-width="2.5" stroke-linecap="round"/>

    <!-- 电话听筒 (经典形状，居中) -->
    <g transform="scale(1.6) translate(-12, -12)">
      <path d="M6.62 10.79c1.44 2.83 3.76 5.14 6.59 6.59l2.2-2.2c.27-.27.67-.36 1.02-.24 1.12.37 2.33.57 3.57.57.55 0 1 .45 1 1V20c0 .55-.45 1-1 1-9.39 0-17-7.61-17-17 0-.55.45-1 1-1h3.5c.55 0 1 .45 1 1 0 1.25.2 2.45.57 3.57.11.35.03.74-.25 1.02l-2.2 2.2z"
            fill="#FFFFFF"/>
    </g>
  </g>
</svg>