<svg xmlns="http://www.w3.org/2000/svg" viewBox="0 0 512 512" width="512" height="512">
  <defs>
    <linearGradient id="bgGradient" x1="0%" y1="0%" x2="100%" y2="100%">
      <stop offset="0%" style="stop-color:#409EFF;stop-opacity:1" />
      <stop offset="100%" style="stop-color:#337ECC;stop-opacity:1" />
    </linearGradient>
  </defs>
  
  <!-- 背景圆形 -->
  <circle cx="256" cy="256" r="240" fill="url(#bgGradient)" stroke="#2C5AA0" stroke-width="8"/>
  
  <!-- CRM文字 -->
  <text x="256" y="200" font-family="Arial, sans-serif" font-size="120" font-weight="bold" fill="white" text-anchor="middle">CRM</text>
  
  <!-- 电话图标 -->
  <g transform="translate(256, 320)">
    <path d="M-30,-20 Q-35,-25 -30,-30 L-20,-40 Q-15,-45 -10,-40 L0,-30 Q5,-25 0,-20 L-10,-10 Q-15,-5 -20,-10 L-30,-20 Z" fill="white"/>
    <path d="M10,-20 Q15,-25 20,-20 L30,-10 Q35,-5 30,0 L20,10 Q15,15 10,10 L0,0 Q-5,-5 0,-10 L10,-20 Z" fill="white"/>
    <path d="M-15,-15 Q0,0 15,15" stroke="white" stroke-width="4" fill="none"/>
  </g>
  
  <!-- 装饰性元素 -->
  <circle cx="150" cy="150" r="8" fill="rgba(255,255,255,0.3)"/>
  <circle cx="380" cy="180" r="6" fill="rgba(255,255,255,0.3)"/>
  <circle cx="120" cy="350" r="10" fill="rgba(255,255,255,0.3)"/>
  <circle cx="400" cy="320" r="7" fill="rgba(255,255,255,0.3)"/>
</svg>